# xmcd CD database file
#
# Track frame offsets:
#	150
#	14424
#	27958
#	40032
#	52529
#	63761
#	77281
#	96126
#	119696
#	130865
#	146272
#	156167
#	167900
#	184621
#	194154
#	205536
#	218235
#	230597
#	244597
#	260891
#	274225
#	284420
#	302638
#	316505
#
# Disc length: 4386 seconds
#
# Revision: 0
# Processed by: cddbd v1.5.1PL2 Copyright (c) Steve Scherf et al.
# Submitted via: CDex 1.50
#
DISCID=4a112018
DTITLE=30 let ceske country - CD 1
DYEAR=1900
DGENRE=Country
TTITLE0=E. Olmerova - Cekej tise
TTITLE1=Greenhorns - T jako Texas
TTITLE2=J. Grossmann - Sve banjo odhazuji vdal
TTITLE3=K Kahovec - Haj modrinu
TTITLE4=K. Zich and Spiritual kvintet - Kovbojuv narek
TTITLE5=L. Vodicka - Ja tu zemi znam
TTITLE6=M Hoffmann - Oranzovy expres
TTITLE7=M. Cerny - Zatim co ty spis
TTITLE8=M. Tucny - Blues folsomske veznice
TTITLE9=M. Tucny and T. Linka - El Paso
TTITLE10=Mustangove - Aljaska
TTITLE11=N. Urbankova - Ja zahadou se trapim
TTITLE12=N. Urbankova - Zavidim
TTITLE13=N. Urbankova and J. Grossmann - Drahy muj
TTITLE14=N. Urbankova and j. Grossmann - Jackson
TTITLE15=P. Bobek - Oh, Ruby, nechtej mi lasku brat
TTITLE16=P. Bobek - Ved me dal cesto ma
TTITLE17=P. Cernocka - Nakladak
TTITLE18=Plavci -  Vysocina
TTITLE19=Rangers - Pole s bavlnou
TTITLE20=Rangers - Ta zem je tva zem
TTITLE21=V. Vyskocil and Taxmeni - Dlouhy cerny zavoj
TTITLE22=W. Matuska - To jsem ja, ten kovboj
TTITLE23=W. Matuska - To vsechno odnes cas
EXTD=
EXTT0=
EXTT1=
EXTT2=
EXTT3=
EXTT4=
EXTT5=
EXTT6=
EXTT7=
EXTT8=
EXTT9=
EXTT10=
EXTT11=
EXTT12=
EXTT13=
EXTT14=
EXTT15=
EXTT16=
EXTT17=
EXTT18=
EXTT19=
EXTT20=
EXTT21=
EXTT22=
EXTT23=
PLAYORDER=
